# xmcd CD database file generated by Grip 3.0.4
# 
# Track frame offsets:
#       150
#       20155
#       32407
#       44250
#       72725
#       91510
#       130565
#       148592
#       178775
#       195212
#       215287
# 
# Disc length: 3344 seconds
# 
# Revision: 5
# Processed by: cddbd v1.4PL0 Copyright (c) Steve Scherf et al.
# Submitted via: Grip 3.0.4
# 
DISCID=900d0e0b
DTITLE=Sonic Youth - SYR 5
DYEAR=2000
DGENRE=Alternative
TTITLE0=Olive's Horn
TTITLE1=International Spy
TTITLE2=Neu Adult
TTITLE3=Paperbag/Orange Laptop
TTITLE4=Stuck On Gum
TTITLE5=Fried Mushroom
TTITLE6=What Do You Want? (Kim)
TTITLE7=Lemonade
TTITLE8=We Are The Princesses
TTITLE9=Take Me Back
TTITLE10=Take It To The Hit
EXTD=
EXTT0=
EXTT1=
EXTT2=
EXTT3=
EXTT4=
EXTT5=
EXTT6=
EXTT7=
EXTT8=
EXTT9=
EXTT10=
PLAYORDER=
